<?xml version="1.0" encoding="UTF-8" standalone="no"?>
<!-- Generator: Adobe Illustrator 21.0.0, SVG Export Plug-In . SVG Version: 6.00 Build 0)  -->

<svg
   xmlns:dc="http://purl.org/dc/elements/1.1/"
   xmlns:cc="http://creativecommons.org/ns#"
   xmlns:rdf="http://www.w3.org/1999/02/22-rdf-syntax-ns#"
   xmlns:svg="http://www.w3.org/2000/svg"
   xmlns="http://www.w3.org/2000/svg"
   xmlns:sodipodi="http://sodipodi.sourceforge.net/DTD/sodipodi-0.dtd"
   xmlns:inkscape="http://www.inkscape.org/namespaces/inkscape"
   version="1.1"
   id="Warstwa_1"
   x="0px"
   y="0px"
   viewBox="0 0 479.99999 199.99999"
   xml:space="preserve"
   sodipodi:docname="CG_logo.svg"
   inkscape:version="0.92.3 (2405546, 2018-03-11)"
   width="480"
   height="200"
   inkscape:export-filename="/home/ubuntu/Dropbox/szkola/logo/CG_logo.png"
   inkscape:export-xdpi="96"
   inkscape:export-ydpi="96"><metadata
   id="metadata218"><rdf:RDF><cc:Work
       rdf:about=""><dc:format>image/svg+xml</dc:format><dc:type
         rdf:resource="http://purl.org/dc/dcmitype/StillImage" /><dc:title></dc:title></cc:Work></rdf:RDF></metadata><defs
   id="defs216" /><sodipodi:namedview
   pagecolor="#ffffff"
   bordercolor="#666666"
   borderopacity="1"
   objecttolerance="10"
   gridtolerance="10"
   guidetolerance="10"
   inkscape:pageopacity="0"
   inkscape:pageshadow="2"
   inkscape:window-width="1920"
   inkscape:window-height="995"
   id="namedview214"
   showgrid="false"
   inkscape:zoom="1.5698701"
   inkscape:cx="135.05852"
   inkscape:cy="60.200914"
   inkscape:window-x="1600"
   inkscape:window-y="0"
   inkscape:window-maximized="1"
   inkscape:current-layer="g57" />
<style
   type="text/css"
   id="style2">
	.st0{fill:none;stroke:#020203;stroke-width:3.8817;stroke-linecap:round;stroke-linejoin:round;}
	.st1{fill:#3D3D3D;}
	.st2{fill:none;}
	.st3{fill:#FFFFFF;}
	.st4{font-family:'BrushScriptStd';}
	.st5{font-size:19px;}
	.st6{font-family:'Helvetica-Bold';}
	.st7{font-size:13px;}
</style>
<path
   id="path1068-1_2_"
   inkscape:connector-curvature="0"
   sodipodi:nodetypes="cccccccccc"
   class="st0"
   d="M 458.15228,179.40548 V 75.705478 l -5.1,0.4 c 1,-7.1 -2.1,-9.1 -6.3,-9.9 -13.4,-1.4 -24.7,-11.3 -36,-21 1.7,-6.5 -2.2,-7.3 -6.7,-7.5 -4.3,-1.3 -8.3,-5.3 -12.3,-9.1 l -0.4,-4.8 h -2.4 c -0.1,-2.1 1.9,-4.6 -1.2,-6.1"
   style="fill:none;stroke:#020203;stroke-width:3.88170004;stroke-linecap:round;stroke-linejoin:round" />
<path
   id="path1068-3-5_4_"
   inkscape:connector-curvature="0"
   sodipodi:nodetypes="cccccccccc"
   class="st0"
   d="m 317.15228,75.205478 5.1,0.4 c -1,-7 2.1,-9 6.3,-9.8 13.4,-1.4 24.7,-11.2 36,-20.8 -1.7,-6.4 2.2,-7.3 6.7,-7.5 4.3,-1.3 8.3,-5.2 12.3,-9 l 0.4,-4.7 h 2.4 c 0.1,-2.1 -1.9,-4.5 1.2,-6"
   style="fill:none;stroke:#020203;stroke-width:3.88170004;stroke-linecap:round;stroke-linejoin:round" />
<path
   id="path1094-69_2_"
   inkscape:connector-curvature="0"
   sodipodi:nodetypes="csc"
   class="st0"
   d="m 287.65228,75.805478 c 1.8,5.7 7.2,7.4 14.1,7.4 6.4,0 11.9,-0.6 15.3,-7.6"
   style="fill:none;stroke:#020203;stroke-width:3.88170004;stroke-linecap:round;stroke-linejoin:round" />
<path
   id="path1094-9-7_2_"
   inkscape:connector-curvature="0"
   sodipodi:nodetypes="csc"
   class="st0"
   d="m 258.25228,76.005478 c 1.8,5.7 7.2,7.4 14.1,7.4 6.4,0 11.9,-0.6 15.3,-7.6"
   style="fill:none;stroke:#020203;stroke-width:3.88170004;stroke-linecap:round;stroke-linejoin:round" />
<path
   id="path1094-4-2_2_"
   inkscape:connector-curvature="0"
   sodipodi:nodetypes="csc"
   class="st0"
   d="m 228.85228,76.105478 c 1.8,5.7 7.2,7.4 14.1,7.4 6.4,0 11.9,-0.6 15.3,-7.6"
   style="fill:none;stroke:#020203;stroke-width:3.88170004;stroke-linecap:round;stroke-linejoin:round" />
<path
   id="path1094-90-5_2_"
   inkscape:connector-curvature="0"
   sodipodi:nodetypes="csc"
   class="st0"
   d="m 199.45228,76.205478 c 1.8,5.7 7.2,7.4 14.1,7.4 6.4,0 11.9,-0.6 15.3,-7.6"
   style="fill:none;stroke:#020203;stroke-width:3.88170004;stroke-linecap:round;stroke-linejoin:round" />
<path
   id="path1094-6-1_2_"
   inkscape:connector-curvature="0"
   sodipodi:nodetypes="csc"
   class="st0"
   d="m 170.05228,76.305478 c 1.8,5.7 7.2,7.4 14.1,7.4 6.4,0 11.9,-0.6 15.3,-7.6"
   style="fill:none;stroke:#020203;stroke-width:3.88170004;stroke-linecap:round;stroke-linejoin:round" />
<path
   id="path1094-8-2_2_"
   inkscape:connector-curvature="0"
   sodipodi:nodetypes="csc"
   class="st0"
   d="m 140.55228,76.505478 c 1.8,5.7 7.2,7.4 14.1,7.4 6.4,0 11.9,-0.6 15.3,-7.6"
   style="fill:none;stroke:#020203;stroke-width:3.88170004;stroke-linecap:round;stroke-linejoin:round" />
<path
   id="path1094-2-8_2_"
   inkscape:connector-curvature="0"
   sodipodi:nodetypes="csc"
   class="st0"
   d="m 111.15228,76.605478 c 1.8,5.7 7.2,7.4 14.1,7.4 6.4,0 11.9,-0.6 15.3,-7.6"
   style="fill:none;stroke:#020203;stroke-width:3.88170004;stroke-linecap:round;stroke-linejoin:round" />
<path
   id="path1094-1-3_2_"
   inkscape:connector-curvature="0"
   sodipodi:nodetypes="csc"
   class="st0"
   d="m 81.752283,76.705478 c 1.8,5.7 7.2,7.4 14.1,7.4 6.399997,0 11.899997,-0.6 15.299997,-7.6"
   style="fill:none;stroke:#020203;stroke-width:3.88170004;stroke-linecap:round;stroke-linejoin:round" />
<path
   id="path1094-24-3_2_"
   inkscape:connector-curvature="0"
   sodipodi:nodetypes="csc"
   class="st0"
   d="m 52.352283,76.905478 c 1.8,5.7 7.2,7.4 14.1,7.4 6.4,0 11.9,-0.6 15.3,-7.6"
   style="fill:none;stroke:#020203;stroke-width:3.88170004;stroke-linecap:round;stroke-linejoin:round" />
<path
   id="path1094-87-6_2_"
   inkscape:connector-curvature="0"
   sodipodi:nodetypes="csc"
   class="st0"
   d="m 22.952283,77.005478 c 1.8,5.7 7.2,7.4 14.1,7.4 6.4,0 11.9,-0.6 15.3,-7.6"
   style="fill:none;stroke:#020203;stroke-width:3.88170004;stroke-linecap:round;stroke-linejoin:round" />
<path
   id="path1159-9_2_"
   inkscape:connector-curvature="0"
   class="st0"
   d="M 22.952283,77.005478 V 179.40548"
   style="fill:none;stroke:#020203;stroke-width:3.88170004;stroke-linecap:round;stroke-linejoin:round" />
<g
   id="g57"
   transform="translate(-31.212774,-373.94403)">
	<path
   d="m 107.56505,502.44951 c -0.3,4.5 -2.8,8.1 -9.899997,8.1 -6.9,0 -10.4,-3.4 -10.4,-11.9 0,-8.3 3.3,-12.1 10.4,-12.1 5.599997,0 9.099997,2.4 9.899997,7.6 h -4.7 c -0.5,-2 -1.2,-3.6 -5.099997,-3.6 -3.9,0 -5.6,2.3 -5.6,8.5 0,4.8 1.3,7.4 5.7,7.4 3.199997,0 4.699997,-1 5.099997,-4 z"
   id="path17"
   inkscape:connector-curvature="0" />
	<path
   d="m 118.66505,510.44951 c -4.4,0 -8.6,-1.7 -8.6,-8.9 0,-6.1 3.1,-8.9 8.6,-8.9 5.5,0 8.7,2.8 8.7,8.9 0,6.2 -3.2,8.9 -8.7,8.9 z m 0,-14.1 c -3,0 -4.1,1.3 -4.1,5.2 0,3.9 1.1,5.2 4.1,5.2 2.9,0 4.1,-1.3 4.1,-5.2 0,-3.8 -1,-5.2 -4.1,-5.2 z"
   id="path19"
   inkscape:connector-curvature="0" />
	<path
   d="m 130.66505,487.04951 h 4.4 v 22.9 h -4.4 z"
   id="path21"
   inkscape:connector-curvature="0" />
	<path
   d="m 139.56505,487.04951 h 4.4 v 22.9 h -4.4 z"
   id="path23"
   inkscape:connector-curvature="0" />
	<path
   d="m 162.86505,505.24951 c -0.5,3.9 -3.1,5.2 -7.7,5.2 -5.2,0 -8.1,-1.8 -8.1,-9 0,-4.8 1.3,-8.7 8.3,-8.7 5.9,0 7.7,2.8 7.7,10.1 h -11.4 c 0.2,3.2 1,4 3.5,4 1.7,0 2.7,-0.3 3.2,-1.6 z m -4.2,-5.2 c -0.2,-3.1 -1.4,-3.6 -3.5,-3.6 -2.6,0 -3.3,0.9 -3.4,3.6 z"
   id="path25"
   inkscape:connector-curvature="0" />
	<path
   d="m 170.66505,511.74951 c 0.2,0.8 0.4,1.8 3.2,1.8 2.9,0 3.4,-1 3.4,-3.8 v -1.6 c -0.9,1.3 -2.2,1.9 -4.6,1.9 -4.8,0 -7.3,-2.4 -7.3,-8.6 0,-6.1 2.4,-8.7 7,-8.7 3.2,0 4.6,1.2 5.2,2.2 v -1.8 h 4.2 v 15.7 c 0,4.6 -0.4,8 -8.2,8 -4.6,0 -7.6,-1.2 -7.7,-5.1 z m 2.8,-5.3 c 2.9,0 3.8,-1.5 3.8,-5.1 0,-3.6 -0.9,-4.9 -3.8,-4.9 -2.5,0 -3.5,1 -3.5,5.1 -0.1,3.6 0.7,4.9 3.5,4.9 z"
   id="path27"
   inkscape:connector-curvature="0" />
	<path
   d="m 188.06505,486.64951 c 2.1,0 2.6,0.7 2.6,2.4 0,1.7 -0.5,2.4 -2.6,2.4 -2.1,0 -2.5,-0.7 -2.5,-2.4 0,-1.7 0.4,-2.4 2.5,-2.4 z m -2.2,6.5 h 4.4 v 16.9 h -4.4 z"
   id="path29"
   inkscape:connector-curvature="0" />
	<path
   d="m 205.76505,508.24951 c -1.2,1.9 -3.2,2.2 -5.2,2.2 -4.1,0 -5.8,-1.5 -5.8,-6.3 v -10.9 h 4.4 v 10.7 c 0,2.3 0.7,3 2.9,3 2.3,0 3.4,-0.8 3.4,-3.9 v -9.7 h 4.4 v 16.9 h -4.1 z"
   id="path31"
   inkscape:connector-curvature="0" />
	<path
   d="m 218.36505,493.14951 v 1.8 c 1.1,-1.6 2.6,-2.2 5.1,-2.2 2.6,0 3.7,0.7 4.6,2.4 0.8,-1.1 1.9,-2.4 5.1,-2.4 4.4,0 5.4,2.3 5.4,5.9 v 11.4 h -4.4 v -10 c 0,-2.7 -0.5,-3.6 -2.5,-3.6 -2.8,0 -3,1.7 -3,5.6 v 8.1 h -4.4 v -9.8 c 0,-2.8 0,-3.8 -2.6,-3.8 -2.8,0 -3,1.2 -3,5.4 v 8.2 h -4.4 v -16.9 h 4.1 z"
   id="path33"
   inkscape:connector-curvature="0" />
	<path
   d="m 272.86505,500.44951 c 0,7.6 -4.2,10.1 -10.8,10.1 -5.7,0 -11.3,-2.1 -11.3,-12 0,-10.4 6.2,-12 11.3,-12 6.2,0 10,2.3 10.4,7.6 h -4.7 c -0.3,-2.2 -1.5,-3.6 -5.5,-3.6 -4.4,0 -6.6,1.7 -6.6,8 0,6.6 2.4,7.9 6.5,7.9 4.7,0 6,-1.5 6,-4.9 h -5.4 v -3.8 h 10 v 2.7 z"
   id="path35"
   inkscape:connector-curvature="0" />
	<path
   d="m 284.06505,510.44951 c -4.4,0 -8.6,-1.7 -8.6,-8.9 0,-6.1 3.1,-8.9 8.6,-8.9 5.6,0 8.7,2.8 8.7,8.9 0,6.2 -3.2,8.9 -8.7,8.9 z m 0,-14.1 c -3,0 -4.1,1.3 -4.1,5.2 0,3.9 1.1,5.2 4.1,5.2 2.9,0 4.1,-1.3 4.1,-5.2 0,-3.8 -1,-5.2 -4.1,-5.2 z"
   id="path37"
   inkscape:connector-curvature="0" />
	<path
   d="m 299.36505,504.84951 c 0.2,1.8 1.2,2.3 3.6,2.3 2.3,0 3.1,-0.4 3.1,-1.6 0,-1 -0.4,-1.3 -2,-1.7 l -4.7,-1.1 c -2.5,-0.6 -4,-1.7 -4,-4.6 0,-3.4 2,-5.3 7.4,-5.3 4.1,0 6.9,1.1 7.2,5.2 h -4.4 c -0.2,-1.5 -0.7,-1.9 -2.8,-1.9 -2.3,0 -2.9,0.5 -2.9,1.5 0,0.8 0.4,1.2 1.9,1.6 l 4.2,1 c 3.1,0.7 4.6,1.9 4.6,4.8 0,4 -3,5.6 -7.6,5.6 -4.4,0 -7.8,-1.4 -8,-5.6 h 4.4 z"
   id="path39"
   inkscape:connector-curvature="0" />
	<path
   d="m 321.56505,496.74951 h -2.9 v 7.2 c 0,2.4 0,2.8 1.8,2.8 0.7,0 1.1,-0.1 1.1,-0.1 v 3.3 c 0,0 -1.5,0.3 -3.2,0.3 -4.2,0 -4.2,-1.7 -4.2,-6.2 v -7.3 h -2.2 v -3.6 h 2.2 v -4.2 h 4.4 v 4.2 h 2.9 v 3.6 z"
   id="path41"
   inkscape:connector-curvature="0" />
	<path
   d="m 332.06505,510.44951 c -4.4,0 -8.6,-1.7 -8.6,-8.9 0,-6.1 3.1,-8.9 8.6,-8.9 5.5,0 8.7,2.8 8.7,8.9 0,6.2 -3.2,8.9 -8.7,8.9 z m 0,-14.1 c -3,0 -4.1,1.3 -4.1,5.2 0,3.9 1.1,5.2 4.1,5.2 2.9,0 4.1,-1.3 4.1,-5.2 0,-3.8 -1,-5.2 -4.1,-5.2 z"
   id="path43"
   inkscape:connector-curvature="0" />
	<path
   d="m 348.16505,493.14951 v 1.8 c 1.1,-1.6 2.6,-2.2 5.1,-2.2 2.6,0 3.7,0.7 4.6,2.4 0.8,-1.1 1.9,-2.4 5.1,-2.4 4.4,0 5.4,2.3 5.4,5.9 v 11.4 h -4.4 v -10 c 0,-2.7 -0.5,-3.6 -2.5,-3.6 -2.8,0 -3,1.7 -3,5.6 v 8.1 h -4.4 v -9.8 c 0,-2.8 0,-3.8 -2.6,-3.8 -2.8,0 -3,1.2 -3,5.4 v 8.2 h -4.4 v -16.9 h 4.1 z"
   id="path45"
   inkscape:connector-curvature="0" />
	<path
   d="m 374.76505,486.64951 c 2.1,0 2.6,0.7 2.6,2.4 0,1.7 -0.5,2.4 -2.6,2.4 -2.1,0 -2.5,-0.7 -2.5,-2.4 0,-1.7 0.4,-2.4 2.5,-2.4 z m -2.2,6.5 h 4.4 v 16.9 h -4.4 z"
   id="path47"
   inkscape:connector-curvature="0" />
	<path
   d="m 380.76505,498.24951 c 0.2,-4.4 2.7,-5.5 7.3,-5.5 4.7,0 7.1,1.2 7.1,4.9 v 12.4 h -4.3 v -1.3 c -0.9,0.9 -2.5,1.7 -5.2,1.7 -4,0 -5.5,-1.8 -5.5,-4.7 0,-3.7 2.4,-5.2 4.9,-5.5 l 5.6,-0.9 v -1 c 0,-1.6 -0.8,-2 -2.9,-2 -2.2,0 -2.7,0.5 -2.9,2 h -4.1 z m 9.9,4 -3.1,0.5 c -1.7,0.3 -2.9,0.6 -2.9,2.4 0,1.3 0.6,2 2.6,2 2.7,0 3.4,-1.5 3.4,-3.6 z"
   id="path49"
   inkscape:connector-curvature="0" />
	<path
   d="m 409.96505,500.34951 c 0,-2.6 0,-3.9 -2.9,-3.9 -3.2,0 -3.5,1.7 -3.5,5.6 v 8 h -4.4 v -16.9 h 4.2 v 2.2 c 1.2,-1.6 2.5,-2.6 5.6,-2.6 4.3,0 5.4,1.9 5.4,7 v 10.3 h -4.4 z"
   id="path51"
   inkscape:connector-curvature="0" />
	<path
   d="m 429.76505,508.24951 c -1.2,1.9 -3.2,2.2 -5.2,2.2 -4.1,0 -5.8,-1.5 -5.8,-6.3 v -10.9 h 4.4 v 10.7 c 0,2.3 0.7,3 2.9,3 2.3,0 3.4,-0.8 3.4,-3.9 v -9.7 h 4.4 v 16.9 h -4.1 z"
   id="path53"
   inkscape:connector-curvature="0" />
	<path
   d="m 442.36505,493.14951 v 1.8 c 1.1,-1.6 2.6,-2.2 5.1,-2.2 2.6,0 3.7,0.7 4.6,2.4 0.8,-1.1 1.9,-2.4 5.1,-2.4 4.4,0 5.4,2.3 5.4,5.9 v 11.4 h -4.4 v -10 c 0,-2.7 -0.5,-3.6 -2.5,-3.6 -2.8,0 -3,1.7 -3,5.6 v 8.1 h -4.4 v -9.8 c 0,-2.8 0,-3.8 -2.6,-3.8 -2.8,0 -3,1.2 -3,5.4 v 8.2 h -4.4 v -16.9 h 4.1 z"
   id="path55"
   inkscape:connector-curvature="0" />
</g>
<g
   id="g87"
   transform="translate(-176.44772,-168.19452)">
	<path
   d="m 307.4,323.7 c 0.1,1.1 0.3,1.7 2.4,1.7 1.1,0 2,-0.2 2,-1.3 0,-0.7 -0.3,-1 -1.2,-1.3 l -2.6,-0.7 c -1.3,-0.3 -2.5,-1 -2.5,-2.9 0,-1.5 0.7,-3.2 4,-3.2 3.2,0 4.2,1.5 4.2,3.4 h -2.2 c -0.1,-0.9 -0.1,-1.5 -2.1,-1.5 -1.1,0 -1.7,0.2 -1.7,1.1 0,0.8 0.5,1 1.1,1.2 l 2.4,0.6 c 1.5,0.4 2.8,1 2.8,3.1 0,3 -2.6,3.3 -4.2,3.3 -3.5,0 -4.5,-1.4 -4.6,-3.6 h 2.2 z"
   id="path59"
   inkscape:connector-curvature="0" />
	<path
   d="m 328,327.1 c -0.2,-0.8 -0.4,-1.5 -0.6,-2.3 H 323 c -0.2,0.8 -0.4,1.5 -0.6,2.3 H 320 c 1.1,-3.6 2.4,-7.2 4,-10.8 h 2.5 c 1.6,3.5 2.9,7.1 4,10.8 z m -4.4,-4.1 h 3.2 c -0.5,-1.4 -1,-2.8 -1.6,-4.2 -0.6,1.4 -1.1,2.8 -1.6,4.2 z"
   id="path61"
   inkscape:connector-curvature="0" />
	<path
   d="m 337,316.3 h 2.3 l 4.2,7.1 v -7.1 h 2.2 v 10.8 h -2.2 l -4.2,-7.1 v 7.1 H 337 Z"
   id="path63"
   inkscape:connector-curvature="0" />
	<path
   d="m 357.6,316.3 c 3.4,0 4.6,1.5 4.6,5.3 0,3.7 -1.3,5.4 -4.6,5.4 h -4.5 v -10.8 h 4.5 z m -2.2,1.9 v 7.1 h 2 c 2.2,0 2.7,-0.8 2.7,-3.6 0,-2.9 -0.3,-3.5 -2.9,-3.5 z"
   id="path65"
   inkscape:connector-curvature="0" />
	<path
   d="m 373.9,316.1 c 2.6,0 5.2,0.8 5.2,5.6 0,4.7 -2.6,5.6 -5.2,5.6 -2.7,0 -5.2,-1 -5.2,-5.6 0,-4.9 2.8,-5.6 5.2,-5.6 z m 0.1,9.3 c 1.5,0 2.8,-0.3 2.8,-3.8 0,-2.7 -0.8,-3.7 -3,-3.7 -2,0 -2.9,0.8 -2.9,3.8 0.1,3.2 1.1,3.7 3.1,3.7 z"
   id="path67"
   inkscape:connector-curvature="0" />
	<path
   d="m 386,316.3 h 3.3 l 2,5.8 1.9,-5.8 h 3.3 v 10.8 h -2.2 v -7.9 l -1.9,5.6 h -2.2 l -1.9,-5.6 v 7.9 H 386 Z"
   id="path69"
   inkscape:connector-curvature="0" />
	<path
   d="m 403.7,316.3 h 2.2 v 10.8 h -2.2 z"
   id="path71"
   inkscape:connector-curvature="0" />
	<path
   d="m 413.3,316.3 h 7.9 v 1.8 h -5.7 v 2.4 h 5.3 v 1.8 h -5.3 v 2.9 h 6 v 1.8 h -8.2 z"
   id="path73"
   inkscape:connector-curvature="0" />
	<path
   d="m 428.6,316.3 h 4.7 c 2.2,0 4.2,0.1 4.2,3.2 0,2.1 -0.9,2.9 -2.1,3.2 l 2.8,4.4 h -2.7 l -2.6,-4.2 h -2 v 4.2 h -2.2 v -10.8 z m 2.2,1.9 v 2.8 h 2 c 1.8,0 2.4,-0.2 2.4,-1.5 0,-1.1 -0.4,-1.3 -2.3,-1.3 z"
   id="path75"
   inkscape:connector-curvature="0" />
	<path
   d="m 443.8,325.3 5.6,-7.1 h -5.3 v -1.8 h 8.1 v 1.7 l -5.7,7.1 h 5.8 v 1.9 h -8.5 z"
   id="path77"
   inkscape:connector-curvature="0" />
	<path
   d="M 470.8,325.3 V 319 l -1.8,0.6 V 318 l 2.2,-1.6 h 1.7 v 8.8 h 1.8 V 327 H 469 v -1.8 h 1.8 z"
   id="path79"
   inkscape:connector-curvature="0" />
	<path
   d="m 486.5,319.1 c 0,-0.6 -0.3,-1 -1.2,-1 -1.4,0 -1.6,1.1 -1.7,2.8 0.4,-0.5 1.1,-0.7 2,-0.7 2.4,0 3.2,1.3 3.2,3.5 0,2.5 -1.2,3.7 -3.6,3.7 -2.7,0 -3.7,-1.5 -3.7,-5.7 0,-2.1 0.2,-5.2 4,-5.2 2,0 2.9,0.9 3.1,2.7 h -2.1 z m -1.3,6.5 c 0.7,0 1.4,-0.2 1.4,-2 0,-1.4 -0.4,-1.8 -1.5,-1.8 -1.1,0 -1.6,0.4 -1.6,1.8 0.1,1.6 0.7,2 1.7,2 z"
   id="path81"
   inkscape:connector-curvature="0" />
	<path
   d="m 502.3,321.9 c 0,3.7 -0.8,5.5 -3.6,5.5 -2.8,0 -3.6,-1.7 -3.6,-5.4 0,-3.8 0.8,-5.5 3.6,-5.5 2.8,-0.1 3.6,1.6 3.6,5.4 z m -5.1,0 c 0,3.2 0.3,3.8 1.5,3.8 1.2,0 1.5,-0.6 1.5,-3.8 0,-3.2 -0.4,-3.8 -1.5,-3.8 -1.1,0 -1.5,0.6 -1.5,3.8 z"
   id="path83"
   inkscape:connector-curvature="0" />
	<path
   d="m 515.7,327.1 h -7.2 c 0,-2.6 1.5,-3.8 3,-4.7 1.9,-1.2 2.1,-1.4 2.1,-2.5 0,-1.3 -0.3,-1.7 -1.4,-1.7 -1.1,0 -1.4,0.4 -1.4,1.9 h -2.1 c 0.1,-2.5 1,-3.6 3.5,-3.6 2.5,0 3.6,1 3.6,3.3 0,2.1 -0.9,2.7 -2.7,3.7 -1.3,0.8 -1.5,1 -1.8,1.8 h 4.6 v 1.8 z"
   id="path85"
   inkscape:connector-curvature="0" />
</g>

<path
   class="st2"
   d="M 149.9,338.79998 H 28.7 c -5.8,0 -10.4,-4.7 -10.4,-10.4 v -158.1 c 0,-5.8 4.7,-10.4 10.4,-10.4 h 121.1 c 5.8,0 10.4,4.7 10.4,10.4 v 158.1 c 0.1,5.7 -4.6,10.4 -10.3,10.4 z"
   id="path91"
   inkscape:connector-curvature="0"
   style="fill:none" />
























<g
   id="g211"
   transform="matrix(1.2717596,0,0,1.2717596,-338.38733,-245.31991)">
	<g
   id="g205">
		<path
   d="m 581.1,275.8 h 1.6 v 7.9 h -1.6 z"
   id="path199"
   inkscape:connector-curvature="0" />
		<path
   d="m 588.1,275.8 h 1.6 v 6.5 h 3.9 v 1.4 H 588 v -7.9 z"
   id="path201"
   inkscape:connector-curvature="0" />
		<path
   d="m 601.8,275.6 c 1.9,0 3.8,0.6 3.8,4.1 0,3.5 -1.9,4.1 -3.8,4.1 -2,0 -3.8,-0.7 -3.8,-4.1 0,-3.5 2,-4.1 3.8,-4.1 z m 0,6.9 c 1.1,0 2.1,-0.2 2.1,-2.8 0,-2 -0.6,-2.7 -2.2,-2.7 -1.5,0 -2.1,0.6 -2.1,2.8 0,2.3 0.8,2.7 2.2,2.7 z"
   id="path203"
   inkscape:connector-curvature="0" />
	</g>
	<rect
   x="581.40002"
   y="274.89999"
   transform="rotate(-90,581.92225,276.32895)"
   width="1"
   height="2.9000001"
   id="rect207" />
	<rect
   x="581.40002"
   y="281.70001"
   transform="rotate(-90,581.9222,283.1842)"
   width="1"
   height="2.9000001"
   id="rect209" />
</g>
</svg>